<svg fill="#343351" id="ac78165e-8c50-4773-a227-ca7beb5fc126" data-name="Layer 1" xmlns="http://www.w3.org/2000/svg" viewBox="0 0 1960 197">
    <path d="M1321,0h56a8.73,8.73,0,0,0,2.42,1.11c10.47,1.05,21,1.73,31.42,3.1,16.07,2.1,32.22,4,48.1,7.17,36.53,7.29,72.72,16.27,108,28.06,38.42,12.83,76.52,26.7,114.38,41.12,27.34,10.4,54.08,22.41,81.05,33.77,14.77,6.21,29.49,12.56,44.22,18.87,19.25,8.24,38.43,16.64,57.75,24.7,12.5,5.22,24.93,10.88,37.88,14.7A194.63,194.63,0,0,0,1960,181v16H0V29a21.08,21.08,0,0,1,3.29.94C28.71,41.75,54.1,53.64,79.54,65.41,98,73.93,116.5,82.29,135,90.71q45.63,20.78,91.26,41.53c21.32,9.69,42.35,20.14,64.1,28.77a568.06,568.06,0,0,0,59.91,19.89c27.12,7.4,55.09,10.61,83.1,12a415.3,415.3,0,0,0,52.79-1,407.12,407.12,0,0,0,50.61-7c33.59-6.88,67-14.5,100.42-22.41,25.1-6,50-12.74,74.94-19.29Q775.59,126.55,839,109.68c28.7-7.67,57.28-15.79,86-23.38Q972.16,73.83,1019.45,62c42.15-10.49,84.27-21.11,126.61-30.8,32.49-7.42,65.2-13.93,98-20,20.76-3.84,41.82-6.11,62.74-9.1C1311.52,1.46,1316.26.71,1321,0Z" />
</svg>
