<svg width="1911" height="438" viewBox="0 0 1911 438" fill="none" xmlns="http://www.w3.org/2000/svg">
<circle cx="106" cy="15" r="15" fill="white"/>
<circle cx="90.5" cy="128.5" r="8.5" fill="white"/>
<circle cx="656.5" cy="377.5" r="8.5" fill="white"/>
<circle cx="6" cy="207" r="6" fill="white"/>
<circle cx="1902" cy="171" r="9" fill="white"/>
<circle cx="1816" cy="247" r="13" fill="white"/>
<circle cx="1734.5" cy="381.5" r="9.5" fill="white"/>
<path d="M1825 422C1820.58 422 1817 418.418 1817 414C1817 409.582 1820.58 406 1825 406H1857C1861.42 406 1865 409.582 1865 414C1865 418.418 1861.42 422 1857 422H1825Z" fill="white"/>
<path d="M1825 422C1820.58 422 1817 418.418 1817 414C1817 409.582 1820.58 406 1825 406H1857C1861.42 406 1865 409.582 1865 414C1865 418.418 1861.42 422 1857 422H1825Z" fill="white"/>
<path d="M1833 398C1833 393.582 1836.58 390 1841 390C1845.42 390 1849 393.582 1849 398V430C1849 434.418 1845.42 438 1841 438C1836.58 438 1833 434.418 1833 430V398Z" fill="white"/>
<path d="M1833 398C1833 393.582 1836.58 390 1841 390C1845.42 390 1849 393.582 1849 398V430C1849 434.418 1845.42 438 1841 438C1836.58 438 1833 434.418 1833 430V398Z" fill="white"/>
<path d="M8 146C3.58172 146 0 142.418 0 138C0 133.582 3.58172 130 8 130H40C44.4183 130 48 133.582 48 138C48 142.418 44.4183 146 40 146H8Z" fill="white"/>
<path d="M8 146C3.58172 146 0 142.418 0 138C0 133.582 3.58172 130 8 130H40C44.4183 130 48 133.582 48 138C48 142.418 44.4183 146 40 146H8Z" fill="white"/>
<path d="M16 122C16 117.582 19.5817 114 24 114C28.4183 114 32 117.582 32 122V154C32 158.418 28.4183 162 24 162C19.5817 162 16 158.418 16 154V122Z" fill="white"/>
<path d="M16 122C16 117.582 19.5817 114 24 114C28.4183 114 32 117.582 32 122V154C32 158.418 28.4183 162 24 162C19.5817 162 16 158.418 16 154V122Z" fill="white"/>
</svg>
