<svg id="a4414d1c-5832-480c-be38-a205f09e0344" data-name="Layer 1" xmlns="http://www.w3.org/2000/svg" xmlns:xlink="http://www.w3.org/1999/xlink" viewBox="0 0 1965.37 1439.71"><defs><style>.aa229903-8069-4d31-8208-4a66d98428ad{fill:none;}.b3a60d1d-c917-45ff-b915-0cc41c268855{clip-path:url(#a46fdb39-5a94-41b9-b937-b6767138e867);}.e560c46e-56b1-4531-ae11-a5f200d30b82{fill:#ffffff;}.bf198ab1-a07f-4a12-80cd-256248d3774b{fill:#ff6c6c;}</style><clipPath id="a46fdb39-5a94-41b9-b937-b6767138e867"><rect class="aa229903-8069-4d31-8208-4a66d98428ad" width="1965.37" height="1439.71"/></clipPath></defs><g class="b3a60d1d-c917-45ff-b915-0cc41c268855"><path class="e560c46e-56b1-4531-ae11-a5f200d30b82" d="M89.23.26Q43,.26-3.32.2q.21,85.7.17,171.37V927.2q0,150.51-.72,301,0,111-.51,221.94C164,1222.66,440,1060.51,741.25,1026.11c150.29-17.15,312.88-7,441.22-79.24,110.63-62.22,174-174.93,214.84-287.39,71.82-198,110.57-393.14,294.44-534C1728.49,97.37,1805.54,52.93,1855.5.26Z"/><path class="bf198ab1-a07f-4a12-80cd-256248d3774b" d="M499.07,129.71c-77.55,95.49-252.82,37.64-335.88,128.35-48.53,53-47.65,140.55-101.53,188.07C2,498.76-91,475.35-163.14,442S-314.89,367.33-390,393.21c-7.27-65.25,23.4-130.15,67.59-178.58s101-83.17,156.9-117.23L126.3-80.29C208.1-130.1,319.24-231,413.15-249.46,518-270.12,506.31-158.88,516.87-88.64,527.8-16,548.9,66.12,499.05,129.72Z"/></g></svg>