<svg width="100" height="100" viewBox="0 0 100 100" fill="none" xmlns="http://www.w3.org/2000/svg">
<path d="M47.9262 57.0926C56.1392 57.0926 64.3614 57.0926 72.5743 57.0926C72.5743 56.9167 72.491 56.8426 72.4077 56.75C71.6392 55.9074 70.8706 55.0648 70.1021 54.2222C68.9447 52.9352 67.7966 51.6296 66.6392 50.3426C65.8799 49.4908 65.1021 48.6574 64.3336 47.8148C63.3892 46.7685 62.454 45.7037 61.5095 44.6482C60.9818 44.0648 60.454 43.4907 59.9262 42.9074C58.954 41.8333 57.991 40.75 57.0281 39.6667C56.5281 39.1111 56.0188 38.5556 55.5188 38C54.5188 36.8889 53.5188 35.7685 52.5188 34.6574C52.0003 34.0833 51.4818 33.5185 50.9632 32.9445C50.0281 31.9167 49.0929 30.8889 48.1669 29.8519C48.0651 29.7407 47.954 29.6296 47.9169 29.4722C48.028 29.3426 48.1669 29.3889 48.2873 29.3889C53.1577 29.3889 58.0188 29.3704 62.8892 29.3982C64.5558 29.4074 66.028 29.9907 67.2225 31.1945C68.1947 32.1759 69.0836 33.2222 70.0003 34.25C70.5003 34.8056 71.0095 35.3611 71.5095 35.9167C72.5095 37.0278 73.5095 38.1482 74.5095 39.2593C74.9818 39.787 75.4632 40.3148 75.9447 40.8426C76.9725 41.9815 77.991 43.1204 79.0188 44.2593C79.491 44.7778 79.9632 45.2963 80.4262 45.8148C81.454 46.963 82.491 48.1111 83.5188 49.2593C84.0558 49.8611 84.6114 50.4445 85.1484 51.0463C85.8892 51.8704 86.6206 52.6945 87.3521 53.5185C87.8521 54.0741 88.3614 54.6296 88.8614 55.1852C89.6484 56.0556 90.4262 56.9352 91.2132 57.8148C91.6855 58.3333 92.1392 58.8611 92.6206 59.3704C94.0095 60.8333 94.6299 62.5833 94.4818 64.5833C94.3614 66.1574 93.7318 67.537 92.6392 68.7037C91.8429 69.5463 91.0836 70.4352 90.3058 71.3056C89.8336 71.8241 89.3706 72.3426 88.8984 72.8704C88.0743 73.787 87.2503 74.713 86.4262 75.6296C85.9169 76.1945 85.3984 76.75 84.8892 77.3148C83.9077 78.4074 82.9262 79.5093 81.9447 80.6019C81.4725 81.1296 80.991 81.6574 80.5095 82.1852C79.4818 83.3241 78.4632 84.463 77.4355 85.6019C76.9632 86.1204 76.491 86.6389 76.028 87.1574C75.0003 88.3056 73.9632 89.4537 72.9355 90.6019C72.4355 91.1574 71.9262 91.7037 71.4262 92.2593C70.6484 93.1204 69.8892 94.0093 69.0929 94.8611C68.4077 95.6019 67.7873 96.4074 67.0281 97.0741C65.9262 98.0556 64.6392 98.6296 63.1484 98.6389C59.3151 98.6482 55.4818 98.6389 51.6577 98.6482C50.9355 98.6482 50.4169 98.3426 50.1206 97.6945C49.8151 97.0278 49.8706 96.3889 50.3614 95.8241C50.9725 95.1111 51.6114 94.4259 52.241 93.7222C53.1947 92.6574 54.1392 91.5926 55.0836 90.537C55.5558 90.0093 56.0373 89.4815 56.5188 88.9537C57.5466 87.8148 58.5651 86.6759 59.5929 85.537C60.0651 85.0185 60.5373 84.5 61.0003 83.9815C61.8151 83.0741 62.6299 82.1574 63.454 81.25C63.954 80.6945 64.4632 80.1482 64.9632 79.5926C65.741 78.7315 66.5188 77.8611 67.2873 76.9908C67.7688 76.4537 68.2595 75.9167 68.741 75.3796C69.7595 74.25 70.7688 73.1204 71.7873 71.9908C72.0558 71.6945 72.3614 71.4352 72.5743 71.0648C72.4262 71 72.278 71.0278 72.1484 71.0278C68.3984 71.0278 64.6484 71.0278 60.9077 71.0278C60.5836 71.0278 60.3521 70.9537 60.1114 70.6852C59.3058 69.75 58.4447 68.8611 57.6206 67.9445C56.6021 66.8148 55.5929 65.6852 54.5743 64.5556C53.9725 63.8889 53.3429 63.2315 52.741 62.5648C51.954 61.6945 51.1762 60.8148 50.3892 59.9445C49.7873 59.2871 49.1855 58.6296 48.5836 57.9722C48.3429 57.713 48.1206 57.4445 47.8892 57.1759C47.8984 57.1574 47.9077 57.1204 47.9262 57.0926Z" fill="white"/>
<path d="M27.778 29.3612C27.9447 29.4168 28.0836 29.3982 28.2224 29.3982C31.8891 29.3982 35.5558 29.4168 39.2132 29.389C39.741 29.389 40.0836 29.5649 40.3984 29.9445C40.9817 30.6205 41.5836 31.2779 42.1762 31.9353C43.0095 32.8612 43.8428 33.7871 44.6854 34.7131C45.241 35.3334 45.815 35.9353 46.3706 36.5556C47.2132 37.4908 48.0558 38.426 48.8984 39.3612C49.5002 40.0186 50.1021 40.676 50.7039 41.3242C51.2132 41.889 51.7317 42.4445 52.241 43.0093C52.3058 43.0834 52.3613 43.1575 52.3799 43.2501C52.3706 43.2593 52.3706 43.2779 52.3613 43.2871C52.3521 43.2964 52.3428 43.3056 52.3336 43.3149C52.3243 43.3242 52.315 43.3242 52.3058 43.3334C52.278 43.3334 52.2595 43.3427 52.2317 43.3427C52.1947 43.3427 52.1576 43.3427 52.1206 43.3427C43.991 43.3427 35.8706 43.3519 27.741 43.3519C27.7317 43.3519 27.7224 43.3612 27.6669 43.389C27.8891 43.6482 28.1021 43.9075 28.3243 44.1575C29.3799 45.3334 30.4354 46.5093 31.491 47.676C32.2595 48.5186 33.028 49.3612 33.7965 50.2038C34.741 51.2501 35.6762 52.3149 36.6206 53.3705C37.3613 54.1945 38.1113 55.0001 38.8428 55.8242C39.7873 56.8797 40.7224 57.9353 41.6669 58.9908C42.1391 59.5186 42.6206 60.0464 43.1021 60.5742C44.1299 61.7131 45.1484 62.8519 46.1762 63.9908C46.6484 64.5093 47.1206 65.0279 47.5836 65.5464C48.6113 66.6945 49.6484 67.8427 50.6762 68.9908C51.1669 69.5371 51.6669 70.0834 52.1576 70.6297C52.241 70.7223 52.3613 70.7964 52.3984 70.9445C52.315 71.0834 52.1669 71.0371 52.0465 71.0371C51.4539 71.0464 50.8613 71.0371 50.2595 71.0371C45.991 71.0371 41.7132 71.0556 37.4447 71.0279C35.4632 71.0186 33.815 70.2131 32.528 68.6853C32.028 68.0834 31.4724 67.5279 30.9539 66.9445C30.1947 66.0927 29.4354 65.2408 28.6762 64.3982C28.1576 63.8242 27.6391 63.2593 27.1206 62.6853C26.3521 61.8334 25.5836 60.9723 24.815 60.1112C24.315 59.5556 23.8058 59.0001 23.3058 58.4445C22.5187 57.5742 21.741 56.6945 20.9539 55.8149C20.4632 55.2686 19.9632 54.7223 19.4724 54.176C18.7039 53.3149 17.9354 52.4538 17.1669 51.6019C16.6947 51.0742 16.2132 50.5464 15.7317 50.0186C14.7039 48.8797 13.6854 47.7408 12.6576 46.6019C12.1854 46.0834 11.7132 45.5649 11.2502 45.0464C10.2224 43.8982 9.19467 42.7408 8.15763 41.6019C7.79652 41.2038 7.41689 40.8242 7.10208 40.3982C6.25948 39.2593 5.8243 37.9816 5.79652 36.5464C5.778 35.4723 5.99097 34.4631 6.42615 33.5001C6.67615 32.9353 7.03726 32.426 7.45393 31.9631C8.40763 30.9075 9.3706 29.8519 10.3243 28.7964C11.4076 27.6019 12.491 26.3982 13.565 25.1945C14.3706 24.2964 15.1762 23.389 15.991 22.4908C17.0836 21.2686 18.1854 20.0556 19.278 18.8427C20.1113 17.9168 20.9447 16.9908 21.778 16.0649C22.7224 15.0093 23.6576 13.9538 24.6021 12.8982C25.1206 12.3242 25.6484 11.7593 26.1576 11.1853C26.9169 10.3334 27.6762 9.48157 28.4354 8.63898C28.9076 8.1112 29.3891 7.58342 29.8706 7.05565C30.6762 6.1575 31.491 5.25935 32.2965 4.35194C33.315 3.19453 34.4724 2.25935 36.028 1.92602C36.3613 1.85194 36.7039 1.79639 37.0465 1.79639C40.9262 1.79639 44.8058 1.79639 48.6854 1.79639C49.4354 1.79639 49.9447 2.19453 50.2225 2.87046C50.491 3.52787 50.3706 4.13898 49.9076 4.66676C48.7687 5.94453 47.6206 7.20379 46.4724 8.47231C45.6299 9.4075 44.7873 10.3427 43.9447 11.2779C42.8613 12.4816 41.7873 13.676 40.7039 14.8797C39.8521 15.8242 39.0002 16.7686 38.1576 17.7131C37.0743 18.9168 36.0002 20.1112 34.9169 21.3149C34.0928 22.2316 33.2687 23.1575 32.4447 24.0742C31.3706 25.2686 30.2965 26.4538 29.2317 27.6482C28.815 28.1205 28.4076 28.5927 27.9724 29.0464C27.8984 29.1112 27.8058 29.2038 27.778 29.3612Z" fill="white"/>
</svg>
