<svg width="121" height="100" viewBox="0 0 121 100" fill="none" xmlns="http://www.w3.org/2000/svg">
<g clip-path="url(#clip0_35_5367)">
<path d="M17.0155 29.256C16.3426 28.4422 15.4942 27.7913 14.5339 27.352C13.6224 26.941 12.6375 26.7179 11.6379 26.696C10.534 26.66 9.43413 26.8472 8.40429 27.2464C7.47752 27.6106 6.63634 28.163 5.93389 28.8688C5.24749 29.568 4.71629 30.4048 4.37549 31.3248C3.6626 33.3344 3.6626 35.528 4.37549 37.5376C4.71309 38.4656 5.24589 39.3088 5.93389 40.0144C6.63629 40.72 7.47789 41.2736 8.40429 41.6352C9.43469 42.0352 10.5339 42.224 11.6395 42.1872C12.6386 42.1651 13.6229 41.9421 14.5339 41.5312C15.4937 41.0912 16.3419 40.4403 17.0155 39.6272L15.3195 38.312C14.9355 38.8848 14.4235 39.3584 13.8267 39.6992C13.1627 40.0834 12.4064 40.2786 11.6395 40.264C10.8483 40.2986 10.0591 40.1592 9.32749 39.856C8.66604 39.5922 8.06786 39.1914 7.57229 38.68C7.07938 38.1368 6.70455 37.4971 6.47149 36.8016C5.96911 35.2771 5.96911 33.6317 6.47149 32.1072C6.70509 31.4128 7.07949 30.776 7.57229 30.2352C8.05869 29.7072 8.65229 29.288 9.31309 29.0064C10.0449 28.7039 10.834 28.5652 11.6251 28.6C12.3931 28.584 13.1483 28.7808 13.8139 29.1648C14.4107 29.504 14.9227 29.9792 15.3067 30.5504L17.0027 29.2368L17.0155 29.256ZM21.9803 41.832H24.0555V34.2672C24.0099 33.1784 24.2354 32.0954 24.7115 31.1152C25.0539 30.448 25.5419 29.8672 26.1387 29.4144C26.5802 29.0689 27.0919 28.8242 27.6379 28.6976C27.9323 28.6464 28.2299 28.6112 28.5291 28.5936C30.0571 28.5936 31.1051 29.0304 31.6731 29.9056C32.3083 31.0576 32.6027 32.3648 32.5243 33.6768V41.8336H34.5995V32.4656C34.7007 30.924 34.2194 29.4004 33.2507 28.1968C32.3387 27.216 30.9387 26.7264 29.0539 26.7264C28.5579 26.7264 28.0683 26.7968 27.5931 26.9296C27.1056 27.0631 26.6352 27.2526 26.1915 27.4944C25.7595 27.7312 25.3595 28.0224 24.9995 28.3616C24.6539 28.6848 24.3595 29.056 24.1211 29.4656H24.0571V18H21.9803V41.832ZM51.1243 34.4912V35.5616C51.1275 36.1856 51.0363 36.8096 50.8555 37.4064C50.6896 37.9658 50.4039 38.4822 50.0181 38.9198C49.6323 39.3576 49.156 39.7059 48.6219 39.9408C48.0019 40.2074 47.3319 40.3378 46.6571 40.3232C46.2379 40.3232 45.8203 40.2736 45.4123 40.1792C45.0163 40.0888 44.6399 39.9285 44.3003 39.7056C43.9695 39.4885 43.6952 39.1955 43.5003 38.8512C43.2912 38.4693 43.1874 38.0386 43.1995 37.6032C43.1848 37.2742 43.2469 36.9462 43.3811 36.6454C43.5152 36.3446 43.7176 36.0792 43.9723 35.8704C44.5176 35.433 45.149 35.1152 45.8251 34.9376C46.5659 34.7342 47.3256 34.6066 48.0923 34.5568C48.8763 34.504 49.5323 34.4768 50.0555 34.4768L51.1243 34.4912ZM50.0891 32.7904C49.2155 32.7904 48.2459 32.832 47.1803 32.9152C46.1602 32.9995 45.1562 33.2202 44.1947 33.5712C43.3048 33.8802 42.5058 34.4058 41.8699 35.1008C41.213 35.8901 40.8807 36.8997 40.9403 37.9248C40.9243 38.5776 41.0715 39.2224 41.3659 39.8032C41.6423 40.3302 42.0287 40.7918 42.4987 41.1568C42.9803 41.5312 43.5291 41.8096 44.1147 41.9776C44.7291 42.1568 45.3627 42.248 46.0027 42.2464C47.0514 42.2742 48.0914 42.0493 49.0347 41.5904C49.9338 41.091 50.6792 40.355 51.1899 39.4624H51.2539C51.2539 39.8608 51.2699 40.2704 51.3019 40.6896C51.3307 41.1104 51.3819 41.4912 51.4507 41.8336H53.4155C53.3421 41.3253 53.2856 40.8146 53.2459 40.3024C53.1943 39.7194 53.1767 39.1339 53.1931 38.5488V31.984C53.2139 31.184 53.0651 30.3888 52.7547 29.6528C52.4845 29.0359 52.0871 28.483 51.5883 28.0304C51.0914 27.592 50.5066 27.2647 49.8731 27.0704C49.2082 26.8599 48.5146 26.7536 47.8171 26.7552C45.0491 26.7552 42.9739 27.4688 41.5947 28.8976L42.8523 30.3808C44.072 29.2481 45.6807 28.6277 47.3451 28.648C49.8603 28.648 51.1163 29.9184 51.1163 32.4624V32.8432L50.0891 32.7904ZM60.0827 27.0832C60.1259 27.6304 60.1627 28.208 60.1947 28.816C60.2251 29.424 60.2395 29.928 60.2395 30.3264V41.8336H62.3163V34.2672C62.2707 33.1784 62.496 32.0954 62.9723 31.1152C63.3147 30.448 63.8011 29.8672 64.3995 29.4144C64.841 29.0689 65.3527 28.8242 65.8987 28.6976C66.1883 28.64 66.4811 28.5984 66.7755 28.5728C68.3035 28.5728 69.3515 29.0112 69.9195 29.8864C70.5551 31.0368 70.8503 32.3442 70.7707 33.656V41.832H72.8475V32.4688C72.9487 30.9272 72.4674 29.4036 71.4987 28.2C70.5947 27.2192 69.1995 26.7296 67.3131 26.7296C66.8187 26.7296 66.3275 26.8 65.8523 26.9328C65.3648 27.0663 64.8946 27.2558 64.4507 27.4976C64.0125 27.7275 63.6055 28.0125 63.2395 28.3456C62.8955 28.6688 62.5995 29.04 62.3627 29.4496H62.2971V28.2656C62.2971 27.8768 62.2699 27.4816 62.2171 27.0848L60.0827 27.0832ZM81.8859 32.08C82.4267 30.7365 83.4637 29.6526 84.7819 29.0528C85.457 28.7442 86.1917 28.5875 86.9339 28.5936C87.7339 28.5824 88.5243 28.7376 89.2587 29.0528C89.9243 29.3376 90.5227 29.7568 91.0219 30.2816C91.5051 30.8 91.8795 31.4128 92.1211 32.08C92.3771 32.784 92.5051 33.5264 92.5019 34.2736C92.5339 35.0704 92.3995 35.864 92.1083 36.6048C91.8363 37.28 91.4251 37.8864 90.8971 38.3856C89.8328 39.3859 88.428 39.9442 86.9675 39.9472C86.2242 39.9541 85.4883 39.7973 84.8123 39.488C84.1637 39.1922 83.5773 38.7757 83.0843 38.2608C82.5861 37.7392 82.1904 37.1286 81.9179 36.4608C81.3522 35.0554 81.3522 33.4854 81.9179 32.08H81.8859ZM79.5403 46.4304C80.4167 47.3926 81.4887 48.1563 82.6843 48.6704C83.933 49.1702 85.2691 49.415 86.6139 49.3904C87.9939 49.4459 89.3685 49.1883 90.6347 48.6368C91.5723 48.2024 92.3954 47.5549 93.0379 46.7456C93.6047 46.0114 94.0029 45.1614 94.2043 44.256C94.3962 43.4176 94.4971 42.5608 94.5051 41.7008V27.0832H92.4299V29.5392H92.3643C91.6477 28.5417 90.6747 27.7567 89.5483 27.2672C89.0738 27.0632 88.5771 26.9156 88.0683 26.8272C87.6055 26.7463 87.1365 26.7046 86.6667 26.7024C85.6375 26.6913 84.6167 26.89 83.6667 27.2864C82.7775 27.6595 81.9746 28.2117 81.3083 28.9088C80.6411 29.6128 80.1115 30.4368 79.7499 31.3376C79.3683 32.2896 79.177 33.3072 79.1867 34.3328C79.1778 35.3616 79.381 36.3813 79.7835 37.328C80.1627 38.224 80.7195 39.032 81.4203 39.7056C82.1243 40.3776 82.9515 40.9072 83.8571 41.2672C84.8103 41.6488 85.8288 41.8413 86.8555 41.8336C87.9077 41.8302 88.9475 41.6067 89.9083 41.1776C90.916 40.7178 91.7671 39.973 92.3563 39.0352H92.4219V41.6624C92.4267 42.424 92.3259 43.1824 92.1211 43.9152C91.9387 44.5984 91.6091 45.2336 91.1515 45.7728C90.6671 46.3232 90.0589 46.7509 89.3771 47.0208C88.5259 47.3472 87.6171 47.504 86.7051 47.48C85.5698 47.4987 84.4466 47.2446 83.4299 46.7392C82.4962 46.2773 81.6843 45.6021 81.0603 44.768L79.5403 46.4304ZM102.896 33.2944C102.896 32.6816 103.043 32.0752 103.321 31.528C103.604 30.9616 103.988 30.4496 104.454 30.0176C104.936 29.5696 105.494 29.2112 106.104 28.9616C106.725 28.6989 107.393 28.5645 108.068 28.5664C108.715 28.5281 109.362 28.6251 109.969 28.8513C110.575 29.0775 111.128 29.4279 111.592 29.88C112.013 30.3395 112.34 30.8779 112.552 31.4642C112.765 32.0506 112.859 32.6731 112.83 33.296H102.894L102.896 33.2944ZM115.089 34.9968V34.0768C115.094 33.107 114.935 32.1435 114.617 31.2272C114.321 30.3667 113.856 29.574 113.249 28.896C112.634 28.2175 111.885 27.6738 111.049 27.2992C110.107 26.8891 109.089 26.6856 108.062 26.7024C107.058 26.6941 106.064 26.8929 105.14 27.2864C104.254 27.6642 103.453 28.2158 102.784 28.9088C102.104 29.6164 101.57 30.451 101.212 31.3648C100.829 32.3482 100.638 33.3958 100.649 34.4512C100.638 35.5088 100.836 36.5581 101.232 37.5392C101.598 38.4512 102.136 39.2832 102.816 39.9936C103.497 40.6944 104.316 41.2464 105.22 41.616C106.182 42.0098 107.213 42.2083 108.252 42.2C109.428 42.2094 110.592 41.9632 111.664 41.4784C112.811 40.9234 113.808 40.1014 114.572 39.0816L112.968 37.768C112.495 38.4915 111.866 39.0995 111.128 39.5472C110.264 40.0784 109.265 40.3472 108.252 40.3216C107.55 40.3291 106.855 40.1907 106.209 39.9152C104.945 39.3723 103.934 38.3699 103.38 37.1104C103.084 36.4528 102.902 35.7493 102.843 35.0304L115.089 34.9968Z" fill="white"/>
<path d="M5.64062 81.2369H10.9206V58.4161H11.0038L25.6758 81.2369H32.3798V51.4801H27.095V73.5857H27.0166L12.6086 51.4801H5.64062V81.2369ZM40.8086 72.8305C41.5377 74.6713 42.6441 76.3391 44.0566 77.7265C45.4664 79.1125 47.1512 80.1874 49.0022 80.8817C51.0168 81.6434 53.1558 82.0221 55.3094 81.9985C57.4886 81.9985 59.6486 81.5921 61.6822 80.8033C63.5443 80.0757 65.2414 78.9815 66.6726 77.5857C68.0888 76.1866 69.2029 74.5122 69.9462 72.6657C70.7414 70.6465 71.1302 68.4881 71.0934 66.3153C71.1249 64.1013 70.7265 61.9023 69.9206 59.8401C69.1841 57.9781 68.0688 56.2897 66.6454 54.8817C65.2243 53.4935 63.5229 52.4253 61.655 51.7489C59.6129 51.0156 57.4529 50.6663 55.2838 50.7185C53.1302 50.6949 50.9912 51.0738 48.9766 51.8353C47.1262 52.5372 45.4424 53.6173 44.0326 55.0065C42.6096 56.4223 41.4945 58.1169 40.7574 59.9841C39.9763 62.0607 39.6025 64.2684 39.6566 66.4865C39.6277 68.6575 40.0262 70.8132 40.8294 72.8305H40.8102H40.8086ZM45.9046 61.9873C46.3713 60.7364 47.0766 59.5882 47.9814 58.6065C48.8814 57.6345 49.9739 56.8607 51.1894 56.3345C52.5117 55.7701 53.9376 55.4898 55.375 55.5121C56.8141 55.493 58.2414 55.7725 59.567 56.3329C60.7894 56.8561 61.8902 57.6289 62.7958 58.6049C63.6998 59.5874 64.4045 60.7362 64.871 61.9873C65.3561 63.3143 65.5958 64.7185 65.5782 66.1313C65.5942 67.6353 65.3462 69.1281 64.8454 70.5457C64.3896 71.8337 63.6838 73.0191 62.7686 74.0337C61.8653 75.0204 60.7654 75.8074 59.5398 76.3441C58.2177 76.9177 56.7889 77.2039 55.3478 77.1841C53.9134 77.2055 52.491 76.9191 51.1766 76.3441C49.9585 75.8034 48.8656 75.0162 47.967 74.0321C47.052 73.0177 46.3467 71.8322 45.8918 70.5441C45.3931 69.1269 45.1472 67.6333 45.1654 66.1313C45.1534 64.7105 45.4017 63.2994 45.8982 61.9681L45.9046 61.9873ZM83.8054 81.2369H88.6646L95.5414 58.5809H95.6262L102.529 81.2369H107.559L116.191 51.4801H110.826L104.997 72.9153H104.913L98.3638 51.4801H93.1638L86.4902 72.9153H86.4054L80.831 51.4801H75.023L83.8054 81.2369Z" fill="#00C26F"/>
</g>
<defs>
<clipPath id="clip0_35_5367">
<rect width="120" height="100" fill="white" transform="translate(0.640625)"/>
</clipPath>
</defs>
</svg>
