<svg width="335" height="335" viewBox="0 0 335 335" fill="none" xmlns="http://www.w3.org/2000/svg">
<path d="M57.4616 225.657C65.1077 240.183 75.54 253.06 88.1628 263.554C100.786 274.048 115.352 281.953 131.03 286.818C146.707 291.682 163.19 293.411 179.536 291.906C195.882 290.401 211.772 285.691 226.297 278.045C240.823 270.399 253.701 259.966 264.195 247.344C274.689 234.721 282.594 220.155 287.458 204.477C292.323 188.799 294.052 172.316 292.547 155.97C291.041 139.624 286.331 123.735 278.685 109.209L258.146 120.02C264.372 131.849 268.208 144.788 269.434 158.099C270.66 171.41 269.252 184.831 265.29 197.598C261.329 210.365 254.892 222.226 246.346 232.505C237.801 242.784 227.314 251.279 215.486 257.506C203.657 263.732 190.718 267.567 177.408 268.793C164.097 270.019 150.675 268.611 137.908 264.65C125.141 260.688 113.28 254.251 103.001 245.706C92.7222 237.16 84.2271 226.674 78.0008 214.845L57.4616 225.657Z" fill="#2B6AFF"/>
<path d="M57.4616 225.657C47.0344 205.847 42.1182 183.601 43.2268 161.243C44.3354 138.884 51.4281 117.233 63.7638 98.5526C76.0995 79.8718 93.2256 64.8467 113.353 55.0468C133.48 45.2469 155.869 41.0319 178.182 42.8423L176.305 65.9771C158.135 64.5029 139.903 67.9352 123.514 75.9154C107.124 83.8956 93.1779 96.1308 83.1327 111.343C73.0876 126.555 67.312 144.185 66.4092 162.392C65.5065 180.599 69.5097 198.714 78.0008 214.845L57.4616 225.657Z" fill="#F3BA2F"/>
<path d="M178.094 42.8351C199.197 44.5323 219.524 51.5619 237.168 63.2647C254.811 74.9674 269.193 90.9598 278.964 109.742L258.373 120.454C250.416 105.16 238.705 92.137 224.338 82.6073C209.97 73.0776 193.418 67.3533 176.233 65.9713L178.094 42.8351Z" fill="#8BC53F"/>
</svg>
