<svg width="800" height="545" viewBox="0 0 800 545" fill="none" xmlns="http://www.w3.org/2000/svg">
<path d="M774.345 422.983C729.725 478.433 613.565 393.183 536.715 462.023C465.135 526.133 504.935 525.683 453.275 540.933C398.565 557.083 378.125 505.873 272.465 493.683C195.225 484.773 177.975 508.883 132.295 491.063C131.095 490.593 129.875 490.103 128.635 489.573C128.365 489.453 128.095 489.333 127.815 489.223C118.825 485.333 109.825 480.323 101.125 474.323C81.9449 461.113 64.2149 443.113 51.2649 421.773C49.9249 419.573 48.6449 417.343 47.4149 415.073C36.7849 395.493 30.2149 373.423 30.0049 349.853C29.2349 261.043 119.395 209.953 126.575 206.033C179.925 176.883 207.225 198.863 245.745 166.993C290.955 129.583 268.805 86.5025 307.385 43.7125C352.415 -6.22746 431.715 -2.01746 519.015 2.61254C626.355 8.30254 689.175 11.6425 732.695 62.1925C767.345 102.453 793.695 197.923 798.875 282.863C802.485 342.173 795.775 396.343 774.345 422.973V422.983Z" fill="url(#paint0_linear_170_35)"/>
<circle cx="231" cy="203" r="9" fill="#FF6C6C"/>
<circle cx="145" cy="279" r="13" fill="#FF6C6C"/>
<circle cx="9.5" cy="420.5" r="9.5" fill="#FF6C6C"/>
<path d="M154 454C149.582 454 146 450.418 146 446C146 441.582 149.582 438 154 438H186C190.418 438 194 441.582 194 446C194 450.418 190.418 454 186 454H154Z" fill="#FF6C6C"/>
<path d="M162 430C162 425.582 165.582 422 170 422C174.418 422 178 425.582 178 430V462C178 466.418 174.418 470 170 470C165.582 470 162 466.418 162 462V430Z" fill="#FF6C6C"/>
<path d="M749 116C744.582 116 741 112.418 741 108C741 103.582 744.582 100 749 100H781C785.418 100 789 103.582 789 108C789 112.418 785.418 116 781 116H749Z" fill="#FF6C6C"/>
<path d="M757 92C757 87.5817 760.582 84 765 84C769.418 84 773 87.5817 773 92V124C773 128.418 769.418 132 765 132C760.582 132 757 128.418 757 124V92Z" fill="#FF6C6C"/>
<defs>
<linearGradient id="paint0_linear_170_35" x1="30.0049" y1="272.023" x2="799.795" y2="272.023" gradientUnits="userSpaceOnUse">
<stop stop-color="#FCD368"/>
<stop offset="1" stop-color="#F7B552"/>
</linearGradient>
</defs>
</svg>
