<svg width="800" height="568" viewBox="0 0 800 568" fill="none" xmlns="http://www.w3.org/2000/svg">
<path d="M774.345 422.983C729.725 478.433 613.565 393.183 536.715 462.023C465.135 526.133 504.935 525.683 453.275 540.933C398.565 557.083 378.125 505.873 272.465 493.683C195.225 484.773 177.975 508.883 132.295 491.063C131.095 490.593 129.875 490.103 128.635 489.573C128.365 489.453 128.095 489.333 127.815 489.223C118.825 485.333 109.825 480.323 101.125 474.323C81.9449 461.113 64.2149 443.113 51.2649 421.773C49.9249 419.573 48.6449 417.343 47.4149 415.073C36.7849 395.493 30.2149 373.423 30.0049 349.853C29.2349 261.043 119.395 209.953 126.575 206.033C179.925 176.883 207.225 198.863 245.745 166.993C290.955 129.583 268.805 86.5025 307.385 43.7125C352.415 -6.22746 431.715 -2.01746 519.015 2.61254C626.355 8.30254 689.175 11.6425 732.695 62.1925C767.345 102.453 793.695 197.923 798.875 282.863C802.485 342.173 795.775 396.343 774.345 422.973V422.983Z" fill="url(#paint0_linear_171_36)"/>
<circle cx="231" cy="301" r="9" fill="#FFE9D6"/>
<circle cx="145" cy="377" r="13" fill="#FFE9D6"/>
<circle cx="9.5" cy="518.5" r="9.5" fill="#FFE9D6"/>
<path d="M154 552C149.582 552 146 548.418 146 544C146 539.582 149.582 536 154 536H186C190.418 536 194 539.582 194 544C194 548.418 190.418 552 186 552H154Z" fill="#FFE9D6"/>
<path d="M162 528C162 523.582 165.582 520 170 520C174.418 520 178 523.582 178 528V560C178 564.418 174.418 568 170 568C165.582 568 162 564.418 162 560V528Z" fill="#FFE9D6"/>
<path d="M749 214C744.582 214 741 210.418 741 206C741 201.582 744.582 198 749 198H781C785.418 198 789 201.582 789 206C789 210.418 785.418 214 781 214H749Z" fill="#FFE9D6"/>
<path d="M757 190C757 185.582 760.582 182 765 182C769.418 182 773 185.582 773 190V222C773 226.418 769.418 230 765 230C760.582 230 757 226.418 757 222V190Z" fill="#FFE9D6"/>
<defs>
<linearGradient id="paint0_linear_171_36" x1="30.0049" y1="272.023" x2="799.795" y2="272.023" gradientUnits="userSpaceOnUse">
<stop stop-color="#FCED68"/>
<stop offset="1" stop-color="#F7E752"/>
</linearGradient>
</defs>
</svg>
